<?xml version="1.0" encoding="UTF-8" standalone="no"?>
<!-- Created with Inkscape (http://www.inkscape.org/) -->

<svg
   viewBox="0 0 21 9"
   version="1.1"
   id="svg1"
   inkscape:version="1.4.2 (ebf0e940d0, 2025-05-08)"
   sodipodi:docname="api-banner.svg"
   xmlns:inkscape="http://www.inkscape.org/namespaces/inkscape"
   xmlns:sodipodi="http://sodipodi.sourceforge.net/DTD/sodipodi-0.dtd"
   xmlns="http://www.w3.org/2000/svg"
   xmlns:svg="http://www.w3.org/2000/svg">
  <sodipodi:namedview
     id="namedview1"
     pagecolor="#ffffff"
     bordercolor="#000000"
     borderopacity="0.25"
     inkscape:showpageshadow="2"
     inkscape:pageopacity="0.0"
     inkscape:pagecheckerboard="0"
     inkscape:deskcolor="#d1d1d1"
     inkscape:document-units="px"
     inkscape:zoom="57.356678"
     inkscape:cx="11.803334"
     inkscape:cy="4.0622994"
     inkscape:window-width="3840"
     inkscape:window-height="2160"
     inkscape:window-x="0"
     inkscape:window-y="0"
     inkscape:window-maximized="0"
     inkscape:current-layer="layer1" />
  <defs
     id="defs1" />
  <g
     inkscape:label="Layer 1"
     inkscape:groupmode="layer"
     id="layer1">
    <rect
       style="fill:#181825;fill-opacity:1;stroke:none;stroke-width:0.811887;stroke-linejoin:bevel;paint-order:stroke fill markers"
       id="rect11"
       width="21"
       height="9.0003014"
       x="0"
       y="-0.00030155672" />
    <g
       id="g1"
       transform="matrix(0.61797252,0,0,0.61797252,1.3810046,1.719066)">
      <path
         sodipodi:type="star"
         style="fill:#313244;fill-opacity:1;stroke-width:0.377953;stroke-linejoin:bevel;paint-order:stroke fill markers"
         id="path1"
         inkscape:flatsided="true"
         sodipodi:sides="6"
         sodipodi:cx="32"
         sodipodi:cy="32"
         sodipodi:r1="32.000351"
         sodipodi:r2="27.713116"
         sodipodi:arg1="-1.5707963"
         sodipodi:arg2="-1.0471976"
         inkscape:rounded="0"
         inkscape:randomized="0"
         d="M 32.000001,-3.5095215e-4 59.713117,15.999825 59.713116,48.000176 31.999999,64.000351 4.2868827,48.000175 l 9e-7,-32.000351 z"
         transform="matrix(0.14062971,0,0,0.14062971,0,-3.0155673e-4)" />
      <path
         id="path12"
         style="fill:#94e2d5;fill-opacity:1;stroke:none;stroke-width:0.0675866"
         d="M 0.83059424,2.4241876 0.64684169,2.8633808 0.6028949,3.1309069 v 0.1466724 l 0.001648,0.020325 -0.001648,2.812e-4 V 6.7499246 L 4.5001508,9 6.5153855,7.8365088 6.1366192,7.6780257 5.820477,7.6261137 5.7020953,7.6357271 5.6397459,7.1616511 5.7567542,7.1399525 6.048451,7.0083868 6.42502,6.7172393 6.3453664,6.4197746 5.8737625,6.3560517 5.5551483,6.3876384 5.443084,6.4274652 5.2598809,5.9858 5.3672758,5.9347119 5.6153005,5.7320074 5.9037013,5.3532409 5.7496129,5.0865389 5.2774596,5.1469657 4.9780721,5.2601287 4.8800158,5.327697 4.5888683,4.9483812 4.6795086,4.8711997 4.8662825,4.6113644 5.0470136,4.1707978 4.8292024,3.9529865 4.3886358,4.1337177 4.1288004,4.3204915 4.0516189,4.4111318 3.6723032,4.1199843 3.7398714,4.021928 3.8530344,3.7225406 3.9134612,3.2503873 3.6467592,3.0962989 3.2679928,3.3846996 3.0652882,3.6327243 3.0142001,3.7401193 2.572535,3.5569162 2.6123617,3.4448519 2.6439484,3.1262377 2.5802256,2.6546337 2.2827608,2.5749802 1.9916133,2.9515491 1.8600476,3.243246 1.838349,3.3602542 1.364273,3.2979047 1.3738865,3.179523 1.3219744,2.8633808 1.1382219,2.4241876 Z" />
      <g
         id="g14"
         style="fill:#313244;fill-opacity:1"
         transform="matrix(0.14062971,0,0,0.14062971,0,-3.0155673e-4)">
        <path
           id="path9"
           style="fill:#313244;fill-opacity:1;stroke:none;stroke-width:0.4806"
           d="m 5.109375,30.414062 c -0.2753266,0.01938 -0.5492857,0.0426 -0.8222656,0.07031 v 3.800781 c 0.2727076,-0.03207 0.5466738,-0.0596 0.8222656,-0.08203 v 14.271484 l 3.78125,2.183594 V 34.203125 c 7.017517,0.571209 13.126886,4.295791 16.916016,9.757813 L 11.548828,52.191406 15.328125,54.375 27.697266,47.232422 c 1.39628,2.960597 2.175781,6.270669 2.175781,9.767578 0,1.862175 -0.220952,3.672442 -0.638672,5.404297 L 32,64 32.847656,63.511719 c 1.53e-4,-6.08e-4 -1.53e-4,-0.0013 0,-0.002 C 33.372742,61.42546 33.652344,59.24514 33.652344,57 c 0,-4.177587 -0.965403,-8.133376 -2.685547,-11.65625 L 29.072266,42.076172 C 24.607699,35.493961 17.279072,31.004576 8.890625,30.414062 Z"
           sodipodi:nodetypes="cccccccccccsccccscccc" />
        <path
           id="circle14"
           style="fill:#313244;fill-opacity:1;stroke:none;stroke-width:19.7931"
           d="M 7,47.103516 A 9.8965502,9.8965502 0 0 0 4.2871094,47.482422 V 48 L 16.728516,55.183594 A 9.8965502,9.8965502 0 0 0 7,47.103516 Z" />
      </g>
    </g>
    <g
       id="g3"
       transform="translate(0.34596688,-0.30323226)">
      <path
         style="font-weight:bold;font-size:0.989535px;font-family:'JetBrains Mono';-inkscape-font-specification:'JetBrains Mono Bold';fill:#a6adc8;fill-opacity:1;stroke-width:4.24876;stroke-linejoin:bevel;paint-order:stroke fill markers"
         d="M 8.4097514,6.2284222 V 5.8702105 H 8.2603317 V 5.7583931 h 0.1494197 v -0.095985 c 0,-0.047498 0.015833,-0.08543 0.047498,-0.1137966 0.031665,-0.028367 0.073556,-0.04255 0.125671,-0.04255 h 0.1593148 v 0.108849 H 8.5858887 c -0.015833,0 -0.028697,0.00462 -0.038592,0.013854 -0.00924,0.00858 -0.013853,0.02045 -0.013853,0.035623 v 0.094006 h 0.2087915 v 0.111817 H 8.5334433 v 0.3582117 z m 0.6926749,0.00891 c -0.069927,0 -0.1253411,-0.019461 -0.1662418,-0.058383 -0.040901,-0.039581 -0.061351,-0.092686 -0.061351,-0.1593151 V 5.8929698 c 0,-0.067288 0.02045,-0.1203934 0.061351,-0.1593151 0.040901,-0.038922 0.096315,-0.058383 0.1662418,-0.058383 0.069927,0 0.1253411,0.019461 0.1662419,0.058383 0.040901,0.038922 0.061351,0.092027 0.061351,0.1593151 v 0.1266605 c 0,0.066629 -0.02045,0.1197337 -0.061351,0.1593151 -0.040901,0.038922 -0.096315,0.058383 -0.1662419,0.058383 z m 0,-0.1078593 c 0.032985,0 0.058383,-0.00891 0.076194,-0.026718 0.018471,-0.018471 0.027707,-0.044859 0.027707,-0.079163 V 5.8890117 c 0,-0.034304 -0.00924,-0.060362 -0.027707,-0.078173 -0.017811,-0.018471 -0.043209,-0.027707 -0.076194,-0.027707 -0.032985,0 -0.058713,0.00924 -0.077184,0.027707 -0.017811,0.017812 -0.026717,0.04387 -0.026717,0.078173 v 0.1345767 c 0,0.034304 0.00891,0.060692 0.026717,0.079163 0.018471,0.017812 0.044199,0.026718 0.077184,0.026718 z m 0.3928458,0.098953 v -0.544248 h 0.1207233 v 0.1058803 c 0.0066,-0.035623 0.022762,-0.06366 0.048487,-0.08411 0.026387,-0.02111 0.060361,-0.031665 0.1019221,-0.031665 0.055414,0 0.098624,0.017812 0.1296291,0.053435 0.031005,0.035623 0.046508,0.08543 0.046508,0.1494197 v 0.051456 H 9.8188501 v -0.045519 c 0,-0.032985 -0.00858,-0.058053 -0.025728,-0.075205 -0.017152,-0.017811 -0.04156,-0.026717 -0.073225,-0.026717 -0.032985,0 -0.058053,0.0099 -0.075205,0.029686 -0.017152,0.019791 -0.025728,0.047828 -0.025728,0.084111 v 0.3334733 z m 3.1694829,0.00989 c -0.02771,0 -0.05014,-0.00825 -0.06729,-0.024738 -0.01649,-0.017152 -0.02474,-0.039252 -0.02474,-0.066299 0,-0.027047 0.0082,-0.049147 0.02474,-0.066299 0.01715,-0.017152 0.03958,-0.025728 0.06729,-0.025728 0.02771,0 0.04981,0.00858 0.0663,0.025728 0.01715,0.017152 0.02573,0.039252 0.02573,0.066299 0,0.027047 -0.0086,0.049147 -0.02573,0.066299 -0.01649,0.016492 -0.03859,0.024738 -0.0663,0.024738 z m 0.570962,-9.895e-4 c -0.06465,0 -0.115773,-0.014513 -0.153378,-0.04354 -0.0376,-0.029686 -0.0564,-0.069597 -0.0564,-0.1197337 h 0.121713 c 0,0.02111 0.0076,0.037272 0.02276,0.048487 0.01583,0.011215 0.0376,0.016822 0.06531,0.016822 h 0.04354 c 0.02969,0 0.05245,-0.00561 0.06828,-0.016822 0.01649,-0.011215 0.02474,-0.027377 0.02474,-0.048487 0,-0.019791 -0.0056,-0.034304 -0.01682,-0.043539 -0.01121,-0.0099 -0.02836,-0.016492 -0.05145,-0.019791 l -0.135567,-0.017812 c -0.04354,-0.00594 -0.07718,-0.022762 -0.100932,-0.050466 -0.02309,-0.027707 -0.03463,-0.063661 -0.03463,-0.1078594 0,-0.051456 0.01715,-0.090707 0.05146,-0.1177546 0.03431,-0.027707 0.08378,-0.041561 0.14843,-0.041561 h 0.04552 c 0.06069,0 0.10951,0.013854 0.146451,0.041561 0.03694,0.027707 0.05607,0.06465 0.05739,0.1108279 h -0.122702 c -6.6e-4,-0.017152 -0.0082,-0.030676 -0.02276,-0.040571 -0.01451,-0.010555 -0.03397,-0.015833 -0.05838,-0.015833 h -0.04552 c -0.02639,0 -0.04651,0.00561 -0.06036,0.016822 -0.01385,0.010555 -0.02078,0.025068 -0.02078,0.043539 0,0.016492 0.0049,0.028696 0.01484,0.036613 0.01055,0.00792 0.02573,0.012864 0.04552,0.014843 l 0.12765,0.017812 c 0.05014,0.00594 0.08774,0.023752 0.112807,0.053435 0.02573,0.029026 0.03859,0.068277 0.03859,0.1177546 0,0.052775 -0.01814,0.093676 -0.05443,0.1227024 -0.03562,0.028367 -0.08807,0.04255 -0.157336,0.04255 z m 0.395814,-0.00891 V 5.6841779 h 0.120723 V 5.7861 c 0.0066,-0.034304 0.02276,-0.061351 0.04849,-0.081142 0.02573,-0.020451 0.05838,-0.030676 0.09796,-0.030676 0.05343,0 0.09598,0.017812 0.12765,0.053435 0.03233,0.035623 0.04849,0.083451 0.04849,0.1434825 V 6.2284222 H 13.951151 V 5.8860431 c 0,-0.033644 -0.0089,-0.059372 -0.02672,-0.077184 -0.01715,-0.018471 -0.04057,-0.027707 -0.07026,-0.027707 -0.03101,0 -0.05542,0.00924 -0.07323,0.027707 -0.01715,0.018471 -0.02573,0.044859 -0.02573,0.079163 v 0.3404001 z m 0.902456,0 c -0.05409,0 -0.09763,-0.016162 -0.130618,-0.048487 -0.03233,-0.032325 -0.04849,-0.074875 -0.04849,-0.1276501 V 5.6178791 H 14.175776 V 5.5060616 h 0.302797 v 0.5432547 c 0,0.020451 0.0056,0.036943 0.01682,0.049477 0.01187,0.011875 0.02771,0.017812 0.0475,0.017812 h 0.159315 v 0.1118175 z m 0.244416,0 0.189991,-0.281028 -0.177127,-0.2632163 h 0.139524 l 0.08411,0.1335873 c 0.0053,0.00792 0.01021,0.016822 0.01484,0.026717 0.0046,0.0099 0.0079,0.017812 0.0099,0.023749 0.0027,-0.00594 0.006,-0.013856 0.0099,-0.023749 0.0046,-0.0099 0.0095,-0.018801 0.01484,-0.026717 l 0.08411,-0.1335873 h 0.140514 l -0.177127,0.2632163 0.189001,0.281028 h -0.140514 l -0.09401,-0.1494198 c -0.0053,-0.00792 -0.01054,-0.016822 -0.01583,-0.026718 -0.0046,-0.010555 -0.0082,-0.018801 -0.01089,-0.024738 -0.0027,0.00594 -0.0063,0.014186 -0.01089,0.024738 -0.0046,0.0099 -0.0095,0.018801 -0.01484,0.026718 l -0.09499,0.1494198 z m 0.854959,0.0099 c -0.02771,0 -0.05014,-0.00825 -0.06729,-0.024738 -0.01649,-0.017152 -0.02474,-0.039252 -0.02474,-0.066299 0,-0.027047 0.0082,-0.049147 0.02474,-0.066299 0.01715,-0.017152 0.03958,-0.025728 0.06729,-0.025728 0.02771,0 0.04981,0.00858 0.0663,0.025728 0.01715,0.017152 0.02573,0.039252 0.02573,0.066299 0,0.027047 -0.0086,0.049147 -0.02573,0.066299 -0.01649,0.016492 -0.03859,0.024738 -0.0663,0.024738 z m 0.373055,-0.0099 V 5.6841779 H 16.12714 V 5.7861 c 0.0066,-0.034304 0.02276,-0.061351 0.04849,-0.081142 0.02573,-0.020451 0.05838,-0.030676 0.09796,-0.030676 0.05343,0 0.09598,0.017812 0.12765,0.053435 0.03233,0.035623 0.04849,0.083451 0.04849,0.1434825 V 6.2284222 H 16.326037 V 5.8860431 c 0,-0.033644 -0.0089,-0.059372 -0.02672,-0.077184 -0.01715,-0.018471 -0.04057,-0.027707 -0.07026,-0.027707 -0.03101,0 -0.05542,0.00924 -0.07323,0.027707 -0.01715,0.018471 -0.02573,0.044859 -0.02573,0.079163 v 0.3404001 z m 0.815377,0.0099 c -0.04618,0 -0.08642,-0.00891 -0.120723,-0.026717 -0.03431,-0.017812 -0.06102,-0.04288 -0.08015,-0.075205 -0.01847,-0.032985 -0.02771,-0.071576 -0.02771,-0.1157756 V 5.8919803 c 0,-0.044199 0.0092,-0.082461 0.02771,-0.1147861 0.01913,-0.032985 0.04585,-0.058383 0.08015,-0.076194 0.03431,-0.017811 0.07455,-0.026717 0.120723,-0.026717 0.04552,0 0.0851,0.00891 0.118744,0.026717 0.03431,0.017812 0.06069,0.04288 0.07916,0.075205 0.01913,0.031665 0.0287,0.068938 0.0287,0.1118174 v 0.098954 h -0.336441 v 0.037602 c 0,0.036943 0.0096,0.064979 0.0287,0.08411 0.01913,0.018471 0.04618,0.027707 0.08114,0.027707 0.02573,0 0.0475,-0.00429 0.06531,-0.012864 0.01847,-0.00924 0.02936,-0.02243 0.03266,-0.039581 h 0.122702 c -0.0086,0.046838 -0.03298,0.08444 -0.07322,0.1128069 -0.04024,0.027707 -0.08939,0.041561 -0.147441,0.041561 z M 16.711956,5.8880221 v 0.018801 l 0.217697,-9.895e-4 v -0.018801 c 0,-0.037603 -0.0092,-0.066629 -0.02771,-0.087079 -0.01847,-0.020451 -0.04519,-0.030676 -0.08015,-0.030676 -0.03628,0 -0.06366,0.010555 -0.08213,0.031665 -0.01847,0.020451 -0.02771,0.049477 -0.02771,0.087079 z m 0.756994,0.3404001 c -0.05079,0 -0.09136,-0.014513 -0.121713,-0.04354 -0.02969,-0.029686 -0.04453,-0.069597 -0.04453,-0.1197337 V 5.7959954 H 17.152299 V 5.6841779 h 0.150409 V 5.5308 h 0.124682 v 0.1533779 h 0.216708 V 5.7959954 H 17.42739 v 0.2661849 c 0,0.015833 0.0043,0.029026 0.01286,0.039581 0.0092,0.0099 0.02177,0.014843 0.0376,0.014843 h 0.161294 v 0.1118175 z"
         id="text1"
         aria-label="for api.snlx.net"
         sodipodi:nodetypes="cccccsssccscsccccccccsssssssccccssscssssccccccccsssccscsssccscscscssssccccsscsccccscssscccsscsccccscsscccccscsccscscsccccsccccscsccccccccccccccccccccccccscscscssscccccscsccscscsccsscsscssccsccscsccccsscccssscscscsccccccccccscsccs" />
      <path
         style="font-weight:bold;font-size:0.989535px;font-family:'JetBrains Mono';-inkscape-font-specification:'JetBrains Mono Bold';fill:#94e2d5;fill-opacity:1;stroke-width:4.24876;stroke-linejoin:bevel;paint-order:stroke fill markers"
         d="m 10.823229,6.2383259 c -0.05541,0 -0.09928,-0.015503 -0.131608,-0.046508 -0.03167,-0.031665 -0.0475,-0.072896 -0.0475,-0.1236919 0,-0.052775 0.01814,-0.094666 0.05442,-0.1256709 0.03629,-0.031665 0.08609,-0.047498 0.14942,-0.047498 h 0.132598 v -0.0386 c 0,-0.054754 -0.032,-0.082131 -0.09599,-0.082131 -0.02903,0 -0.05212,0.00561 -0.06927,0.016822 -0.01715,0.011215 -0.02672,0.027047 -0.0287,0.047498 h -0.118744 c 0.0027,-0.048817 0.02312,-0.088399 0.06135,-0.1187442 0.03892,-0.030346 0.09104,-0.045519 0.156347,-0.045519 0.06927,0 0.123032,0.016162 0.161294,0.048487 0.03826,0.032325 0.05739,0.077843 0.05739,0.1365558 V 6.2284222 H 10.983534 V 6.1265001 c -0.0046,0.034963 -0.02109,0.06234 -0.04948,0.082131 -0.02837,0.019791 -0.06531,0.029686 -0.110828,0.029686 z m 0.03958,-0.1009326 c 0.03629,0 0.06498,-0.00891 0.08609,-0.026717 0.02111,-0.017811 0.03167,-0.04156 0.03167,-0.071246 v -0.06432 h -0.126661 c -0.02705,0 -0.04849,0.00759 -0.06432,0.022759 -0.01583,0.015173 -0.02375,0.034634 -0.02375,0.058383 0,0.024409 0.0082,0.044199 0.02474,0.059372 0.01715,0.014513 0.04123,0.02177 0.07224,0.02177 z m 0.393836,0.2691536 v -0.722369 h 0.120723 v 0.099943 c 0.0099,-0.034304 0.02771,-0.061021 0.05344,-0.080152 0.02573,-0.019791 0.05772,-0.029686 0.09599,-0.029686 0.03496,0 0.06564,0.00858 0.09203,0.025728 0.02705,0.017152 0.04783,0.041561 0.06234,0.073226 0.01517,0.031005 0.02276,0.067288 0.02276,0.1088488 v 0.1474407 c 0,0.062671 -0.01616,0.113137 -0.04849,0.1513989 -0.03233,0.038262 -0.07521,0.057393 -0.128639,0.057393 -0.03826,0 -0.07059,-0.0099 -0.09698,-0.029686 -0.02573,-0.019791 -0.04354,-0.047498 -0.05344,-0.083121 l 0.004,0.1286396 V 6.4065385 Z M 11.48028,6.1314477 c 0.03167,0 0.05608,-0.00858 0.07323,-0.025728 0.01781,-0.017152 0.02672,-0.04354 0.02672,-0.079163 V 5.8860431 c 0,-0.035623 -0.0089,-0.062011 -0.02672,-0.079163 -0.01715,-0.017152 -0.04156,-0.025728 -0.07323,-0.025728 -0.03167,0 -0.05641,0.00957 -0.07422,0.028697 -0.01715,0.019131 -0.02573,0.046178 -0.02573,0.081142 v 0.1306187 c 0,0.034963 0.0086,0.062011 0.02573,0.081142 0.01781,0.019131 0.04255,0.028696 0.07422,0.028696 z m 0.369097,0.096974 V 6.1166047 H 12.03541 V 5.7959954 H 11.869168 V 5.6841779 h 0.289934 v 0.4324268 h 0.167231 v 0.1118175 z m 0.239468,-0.6352815 c -0.02507,0 -0.04486,-0.00627 -0.05937,-0.018801 -0.01451,-0.013194 -0.02177,-0.030676 -0.02177,-0.052445 0,-0.02177 0.0073,-0.038922 0.02177,-0.051456 0.01451,-0.013194 0.0343,-0.019791 0.05937,-0.019791 0.02507,0 0.04486,0.0066 0.05937,0.019791 0.01451,0.012534 0.02177,0.029686 0.02177,0.051456 0,0.02177 -0.0073,0.039252 -0.02177,0.052445 -0.01451,0.012534 -0.0343,0.018801 -0.05937,0.018801 z"
         id="path3"
         aria-label="for api.snlx.net"
         sodipodi:nodetypes="ccscscssscccsssccccccccscsssccccccccsccsssscccccscsscscsscscccccccccccscscscscs" />
    </g>
    <path
       d="m 8.3869638,4.3722516 v -0.996455 h -0.308465 v -0.182495 h 0.82042 v 0.182495 h -0.308465 v 0.996455 z m 0.7106006,0 v -1.17895 h 0.201875 v 0.2907 l -0.00485,0.16473 q 0.01615,-0.08398 0.079135,-0.13243 0.062985,-0.04845 0.159885,-0.04845 0.130815,0 0.208335,0.08721 0.079135,0.08721 0.079135,0.234175 v 0.583015 h -0.201875 v -0.55879 q 0,-0.082365 -0.043605,-0.12597 -0.04199,-0.04522 -0.114665,-0.04522 -0.075905,0 -0.11951,0.04522 -0.04199,0.04522 -0.04199,0.1292 v 0.55556 z m 1.3307606,0.01615 q -0.11305,0 -0.19703,-0.043605 -0.08398,-0.043605 -0.130815,-0.12274 -0.04522,-0.08075 -0.04522,-0.188955 v -0.20995 q 0,-0.108205 0.04522,-0.18734 0.04683,-0.08075 0.130815,-0.124355 0.08398,-0.043605 0.19703,-0.043605 0.111435,0 0.1938,0.043605 0.08398,0.043605 0.1292,0.12274 0.04683,0.07752 0.04683,0.182495 v 0.1615 h -0.5491 v 0.06137 q 0,0.09044 0.04683,0.137275 0.04683,0.04522 0.13243,0.04522 0.06299,0 0.10659,-0.020995 0.04522,-0.02261 0.0533,-0.0646 h 0.20026 q -0.021,0.114665 -0.11951,0.18411 -0.09852,0.06783 -0.240635,0.06783 z m -0.179265,-0.57171 v 0.030685 l 0.3553,-0.00162 v -0.030685 q 0,-0.092055 -0.04522,-0.14212 -0.04522,-0.050065 -0.130815,-0.050065 -0.08882,0 -0.134045,0.05168 -0.04522,0.050065 -0.04522,0.14212 z m 1.752276,0.55556 v -1.17895 h 0.350455 q 0.11951,0 0.20672,0.046835 0.08882,0.04522 0.137275,0.127585 0.04845,0.082365 0.04845,0.1938 v 0.440895 q 0,0.111435 -0.04845,0.195415 -0.04845,0.082365 -0.137275,0.1292 -0.08721,0.04522 -0.20672,0.04522 z m 0.201875,-0.18088 h 0.14858 q 0.08721,0 0.13889,-0.050065 0.05168,-0.05168 0.05168,-0.13889 v -0.440895 q 0,-0.085595 -0.05168,-0.13566 -0.05168,-0.05168 -0.13889,-0.05168 h -0.14858 z m 1.132116,0.19703 q -0.11305,0 -0.19703,-0.043605 -0.08398,-0.043605 -0.130815,-0.12274 -0.04522,-0.08075 -0.04522,-0.188955 v -0.20995 q 0,-0.108205 0.04522,-0.18734 0.04683,-0.08075 0.130815,-0.124355 0.08398,-0.043605 0.19703,-0.043605 0.111435,0 0.1938,0.043605 0.08398,0.043605 0.1292,0.12274 0.04683,0.07752 0.04683,0.182495 v 0.1615 h -0.5491 v 0.06137 q 0,0.09044 0.04683,0.137275 0.04683,0.04522 0.13243,0.04522 0.06298,0 0.10659,-0.020995 0.04522,-0.02261 0.0533,-0.0646 h 0.20026 q -0.02099,0.114665 -0.11951,0.18411 -0.09851,0.06783 -0.240635,0.06783 z m -0.179265,-0.57171 v 0.030685 l 0.3553,-0.00162 v -0.030685 q 0,-0.092055 -0.04522,-0.14212 -0.04522,-0.050065 -0.130815,-0.050065 -0.08882,0 -0.134045,0.05168 -0.04522,0.050065 -0.04522,0.14212 z m 0.738056,0.55556 v -0.88825 h 0.16796 v 0.1292 h 0.0048 q 0.0048,-0.0646 0.04522,-0.104975 0.04037,-0.040375 0.101745,-0.040375 0.05976,0 0.101745,0.03876 0.04199,0.037145 0.05652,0.101745 0.0065,-0.0646 0.04684,-0.101745 0.04199,-0.03876 0.104975,-0.03876 0.08075,0 0.134045,0.0646 0.05329,0.062985 0.05329,0.163115 v 0.676685 h -0.17765 v -0.66215 q 0,-0.043605 -0.02099,-0.06783 -0.01938,-0.02584 -0.05653,-0.02584 -0.07268,0 -0.07268,0.09367 v 0.66215 h -0.1615 v -0.66215 q 0,-0.043605 -0.01938,-0.06783 -0.01776,-0.02584 -0.05329,-0.02584 -0.07752,0 -0.07752,0.09367 v 0.66215 z m 1.377595,0.014535 q -0.17119,0 -0.27132,-0.095285 -0.10013,-0.0969 -0.10013,-0.260015 v -0.20672 q 0,-0.16473 0.10013,-0.260015 0.10013,-0.095285 0.27132,-0.095285 0.17119,0 0.27132,0.095285 0.10013,0.095285 0.10013,0.260015 v 0.20672 q 0,0.163115 -0.10013,0.260015 -0.10013,0.095285 -0.27132,0.095285 z m 0,-0.176035 q 0.08075,0 0.124355,-0.043605 0.04522,-0.04522 0.04522,-0.1292 v -0.21964 q 0,-0.08398 -0.04522,-0.127585 -0.0436,-0.04522 -0.124355,-0.04522 -0.08075,0 -0.12597,0.04522 -0.0436,0.043605 -0.0436,0.127585 v 0.21964 q 0,0.08398 0.0436,0.1292 0.04522,0.043605 0.12597,0.043605 z m 1.938001,0.17765 q -0.172805,0 -0.27132,-0.09367 -0.0969,-0.095285 -0.0969,-0.2584 v -0.84303 h 0.20349 v 0.841415 q 0,0.08398 0.04199,0.130815 0.04199,0.046835 0.12274,0.046835 0.07914,0 0.121125,-0.046835 0.0436,-0.046835 0.0436,-0.130815 v -0.841415 h 0.20349 v 0.84303 q 0,0.163115 -0.0969,0.2584 -0.0969,0.09367 -0.27132,0.09367 z m 0.629851,-0.01615 v -0.182495 h 0.237405 v -0.81396 h -0.237405 v -0.182495 h 0.6783 v 0.182495 H 18.28046 v 0.81396 h 0.237405 v 0.182495 z"
       id="text3"
       style="font-weight:bold;font-size:1.615px;font-family:'JetBrains Mono';-inkscape-font-specification:'JetBrains Mono Bold';fill:#cdd6f4;stroke-width:2.69166;stroke-linejoin:bevel;paint-order:stroke fill markers"
       aria-label="The Demo UI" />
  </g>
</svg>
