<?xml version="1.0" encoding="UTF-8" standalone="no"?>
<!-- Created with Inkscape (http://www.inkscape.org/) -->

<svg
   width="64"
   height="64"
   viewBox="0 0 64 64"
   version="1.1"
   id="svg1"
   inkscape:version="1.4.2 (ebf0e940d0, 2025-05-08)"
   sodipodi:docname="api-logo.svg"
   xml:space="preserve"
   xmlns:inkscape="http://www.inkscape.org/namespaces/inkscape"
   xmlns:sodipodi="http://sodipodi.sourceforge.net/DTD/sodipodi-0.dtd"
   xmlns="http://www.w3.org/2000/svg"
   xmlns:svg="http://www.w3.org/2000/svg"><sodipodi:namedview
     id="namedview1"
     pagecolor="#ffffff"
     bordercolor="#000000"
     borderopacity="0.25"
     inkscape:showpageshadow="2"
     inkscape:pageopacity="0.0"
     inkscape:pagecheckerboard="0"
     inkscape:deskcolor="#d1d1d1"
     inkscape:document-units="px"
     inkscape:zoom="22.627417"
     inkscape:cx="28.571533"
     inkscape:cy="27.974912"
     inkscape:window-width="3832"
     inkscape:window-height="2152"
     inkscape:window-x="0"
     inkscape:window-y="0"
     inkscape:window-maximized="0"
     inkscape:current-layer="layer1"
     showguides="true" /><defs
     id="defs1" /><g
     inkscape:label="Layer 1"
     inkscape:groupmode="layer"
     id="layer1"><rect
       style="fill:#181825;fill-opacity:1;stroke:none;stroke-width:3.77953;stroke-linejoin:bevel;paint-order:stroke fill markers"
       id="rect11"
       width="64"
       height="64"
       x="0"
       y="0" /><path
       sodipodi:type="star"
       style="fill:#313244;stroke-width:0.377953;stroke-linejoin:bevel;paint-order:stroke fill markers;fill-opacity:1"
       id="path1"
       inkscape:flatsided="true"
       sodipodi:sides="6"
       sodipodi:cx="32"
       sodipodi:cy="32"
       sodipodi:r1="32.00035"
       sodipodi:r2="27.713116"
       sodipodi:arg1="-1.5707963"
       sodipodi:arg2="-1.0471976"
       inkscape:rounded="0"
       inkscape:randomized="0"
       d="M 32.000001,-3.5095215e-4 59.713117,15.999825 59.713116,48.000176 31.999999,64.000351 4.2868827,48.000175 l 9e-7,-32.000351 z" /><g
       transform="matrix(1.816442,0,0,1.816442,6.9999991,56.999999)"
       id="g1255"
       style="display:none;fill:#181825;fill-opacity:1;stroke:none"><path
         d="m 18.4685,-1.48722 0.46392,-0.03736 1.23698,0.20261 1.71938,0.71941 V 0.60256 L 20.1694,1.32197 18.93242,1.52458 18.4685,1.48722 18.22413,3.34345 18.6819,3.42744 19.8243,3.9433 21.29889,5.08321 20.98698,6.24726 19.13999,6.49715 17.89272,6.3727 17.45428,6.21655 l -0.71647,1.72973 0.42044,0.1996 0.96995,0.79396 1.12931,1.48272 -0.60255,1.04366 -1.84873,-0.23666 -1.17257,-0.44302 -0.38308,-0.26431 -1.13975,1.48535 0.35445,0.30162 0.73142,1.01794 0.70707,1.72449 -0.85214,0.85214 -1.72449,-0.70707 -1.01794,-0.73142 -0.30162,-0.35445 -1.48535,1.13975 0.26431,0.38308 0.44302,1.17257 0.23666,1.84873 -1.04366,0.60255 L 8.93984,18.1282 8.14588,17.15825 7.94628,16.73781 6.21655,17.45428 6.3727,17.89272 6.49715,19.13999 6.24726,20.98698 5.08321,21.29889 3.9433,19.8243 3.42744,18.6819 3.34345,18.22413 1.48722,18.4685 1.52458,18.93242 1.32197,20.1694 0.60256,21.88878 h -1.20512 l -0.71941,-1.71938 -0.20261,-1.23698 0.03736,-0.46392 -1.85623,-0.24437 -0.08399,0.45777 -0.51586,1.1424 -1.13991,1.47459 -1.16405,-0.31191 -0.24989,-1.84699 0.12445,-1.24727 0.15615,-0.43844 -1.72973,-0.71647 -0.1996,0.42044 -0.79396,0.96995 -1.48272,1.12931 -1.04366,-0.60255 0.23666,-1.84873 0.44302,-1.17257 0.26431,-0.38308 -1.48535,-1.13975 -0.30162,0.35445 -1.01794,0.73142 -1.72449,0.70707 -0.85214,-0.85214 0.70707,-1.72449 0.73142,-1.01794 0.35445,-0.30162 -1.13975,-1.48535 -0.38308,0.26431 -1.17257,0.44302 -1.84873,0.23666 -0.60255,-1.04366 1.12931,-1.48272 0.96995,-0.79396 0.42044,-0.1996 -0.71647,-1.72973 -0.43844,0.15615 -1.24727,0.12445 -1.84699,-0.24989 -0.31191,-1.16405 1.47459,-1.13991 1.1424,-0.51586 0.45777,-0.08399 -0.24437,-1.85623 -0.46392,0.03736 -1.23698,-0.20261 -1.71938,-0.71941 v -1.20512 l 1.71938,-0.71941 1.23698,-0.20261 0.46392,0.03736 0.24437,-1.85623 -0.45777,-0.08399 -1.1424,-0.51586 -1.47459,-1.13991 0.31191,-1.16405 1.84699,-0.24989 1.24727,0.12445 0.43844,0.15615 0.71647,-1.72973 -0.42044,-0.1996 -0.96995,-0.79396 -1.12931,-1.48272 0.60255,-1.04366 1.84873,0.23666 1.17257,0.44302 0.38308,0.26431 1.13975,-1.48535 -0.35445,-0.30162 -0.73142,-1.01794 -0.70707,-1.72449 0.85214,-0.85214 1.72449,0.70707 1.01794,0.73142 0.30162,0.35445 1.48535,-1.13975 -0.26431,-0.38308 -0.44302,-1.17257 -0.23666,-1.84873 1.04366,-0.60255 1.48272,1.12931 0.79396,0.96995 0.1996,0.42044 1.72973,-0.71647 -0.15615,-0.43844 -0.12445,-1.24727 0.24989,-1.84699 1.16405,-0.31191 1.13991,1.47459 0.51586,1.1424 0.08399,0.45777 1.85623,-0.24437 -0.03736,-0.46392 0.20261,-1.23698 0.71941,-1.71938 h 1.20512 l 0.71941,1.71938 0.20261,1.23698 -0.03736,0.46392 1.85623,0.24437 0.08399,-0.45777 0.51586,-1.1424 1.13991,-1.47459 1.16405,0.31191 0.24989,1.84699 -0.12445,1.24727 -0.15615,0.43844 1.72973,0.71647 0.1996,-0.42044 0.79396,-0.96995 1.48272,-1.12931 1.04366,0.60255 -0.23666,1.84873 -0.44302,1.17257 -0.26431,0.38308 1.48535,1.13975 0.30162,-0.35445 1.01794,-0.73142 1.72449,-0.70707 0.85214,0.85214 -0.70707,1.72449 -0.73142,1.01794 -0.35445,0.30162 1.13975,1.48535 0.38308,-0.26431 1.17257,-0.44302 1.84873,-0.23666 0.60255,1.04366 -1.12931,1.48272 -0.96995,0.79396 -0.42044,0.1996 0.71647,1.72973 0.43844,-0.15615 1.24727,-0.12445 1.84699,0.24989 0.31191,1.16405 -1.47459,1.13991 -1.1424,0.51586 -0.45777,0.08399 z"
         style="fill:#181825;fill-opacity:1;stroke:none;stroke-width:0.264583"
         id="path1251" /><circle
         r="0.13229166"
         cy="0"
         cx="0"
         style="fill:#181825;fill-opacity:1;stroke:none;stroke-width:0.264583"
         id="path1253" /></g><path
       id="path12"
       style="fill:#94e2d5;fill-opacity:1;stroke:none;stroke-width:0.4806"
       d="M 5.90625 17.240234 L 4.5996094 20.363281 L 4.2871094 22.265625 L 4.2871094 23.308594 L 4.2988281 23.453125 L 4.2871094 23.455078 L 4.2871094 48 L 32 64 L 46.330078 55.726562 L 43.636719 54.599609 L 41.388672 54.230469 L 40.546875 54.298828 L 40.103516 50.927734 L 40.935547 50.773438 L 43.009766 49.837891 L 45.6875 47.767578 L 45.121094 45.652344 L 41.767578 45.199219 L 39.501953 45.423828 L 38.705078 45.707031 L 37.402344 42.566406 L 38.166016 42.203125 L 39.929688 40.761719 L 41.980469 38.068359 L 40.884766 36.171875 L 37.527344 36.601562 L 35.398438 37.40625 L 34.701172 37.886719 L 32.630859 35.189453 L 33.275391 34.640625 L 34.603516 32.792969 L 35.888672 29.660156 L 34.339844 28.111328 L 31.207031 29.396484 L 29.359375 30.724609 L 28.810547 31.369141 L 26.113281 29.298828 L 26.59375 28.601562 L 27.398438 26.472656 L 27.828125 23.115234 L 25.931641 22.019531 L 23.238281 24.070312 L 21.796875 25.833984 L 21.433594 26.597656 L 18.292969 25.294922 L 18.576172 24.498047 L 18.800781 22.232422 L 18.347656 18.878906 L 16.232422 18.3125 L 14.162109 20.990234 L 13.226562 23.064453 L 13.072266 23.896484 L 9.7011719 23.453125 L 9.7695312 22.611328 L 9.4003906 20.363281 L 8.09375 17.240234 L 5.90625 17.240234 z " /><g
       id="g14"
       style="fill:#313244;fill-opacity:1"><path
         id="path9"
         style="fill:#313244;stroke:none;stroke-width:0.4806;fill-opacity:1"
         d="m 5.109375,30.414062 c -0.2753266,0.01938 -0.5492857,0.0426 -0.8222656,0.07031 v 3.800781 c 0.2727076,-0.03207 0.5466738,-0.0596 0.8222656,-0.08203 v 14.271484 l 3.78125,2.183594 V 34.203125 c 7.017517,0.571209 13.126886,4.295791 16.916016,9.757813 L 11.548828,52.191406 15.328125,54.375 27.697266,47.232422 c 1.39628,2.960597 2.175781,6.270669 2.175781,9.767578 0,1.862175 -0.220952,3.672442 -0.638672,5.404297 L 32,64 32.847656,63.511719 c 1.53e-4,-6.08e-4 -1.53e-4,-0.0013 0,-0.002 C 33.372742,61.42546 33.652344,59.24514 33.652344,57 c 0,-4.177587 -0.965403,-8.133376 -2.685547,-11.65625 L 29.072266,42.076172 C 24.607699,35.493961 17.279072,31.004576 8.890625,30.414062 Z"
         sodipodi:nodetypes="cccccccccccsccccscccc" /><path
         id="circle14"
         style="fill:#313244;fill-opacity:1;stroke:none;stroke-width:19.7931"
         d="M 7 47.103516 A 9.8965502 9.8965502 0 0 0 4.2871094 47.482422 L 4.2871094 48 L 16.728516 55.183594 A 9.8965502 9.8965502 0 0 0 7 47.103516 z " /></g></g></svg>
